<?xml version="1.0" encoding="UTF-8"?>
<svg xmlns="http://www.w3.org/2000/svg" xmlns:xlink="http://www.w3.org/1999/xlink" width="120px" height="120px" viewBox="0 0 120 120" version="1.1">
<g id="surface1">
<path style=" stroke:none;fill-rule:nonzero;fill:rgb(36.470588%,52.941176%,63.137255%);fill-opacity:1;" d="M 36.734375 85.585938 L 33.484375 85.585938 C 33.367188 80.101562 33.050781 74.949219 32.535156 70.117188 L 32.507812 70.117188 L 27.558594 85.585938 L 25.085938 85.585938 L 20.167969 70.117188 L 20.140625 70.117188 C 19.777344 74.753906 19.546875 79.910156 19.453125 85.585938 L 16.492188 85.585938 C 16.679688 78.683594 17.160156 72.214844 17.925781 66.175781 L 21.953125 66.175781 L 26.640625 80.4375 L 26.667969 80.4375 L 31.382812 66.175781 L 35.238281 66.175781 C 36.082031 73.25 36.578125 79.71875 36.734375 85.585938 M 50.820312 71.265625 C 49.5 78.445312 47.753906 83.660156 45.585938 86.914062 C 43.898438 89.421875 42.050781 90.675781 40.039062 90.675781 C 39.5 90.675781 38.839844 90.511719 38.054688 90.191406 L 38.054688 88.460938 C 38.4375 88.515625 38.886719 88.546875 39.40625 88.546875 C 40.347656 88.546875 41.101562 88.289062 41.679688 87.769531 C 42.367188 87.140625 42.710938 86.429688 42.710938 85.644531 C 42.710938 85.105469 42.441406 84.003906 41.90625 82.335938 L 38.34375 71.265625 L 41.535156 71.265625 L 44.09375 79.546875 C 44.667969 81.425781 44.90625 82.738281 44.8125 83.484375 C 46.210938 79.75 47.1875 75.675781 47.746094 71.265625 Z M 50.820312 71.265625 "/>
<path style=" stroke:none;fill-rule:nonzero;fill:rgb(97.254902%,59.607843%,11.372549%);fill-opacity:1;" d="M 94.066406 85.585938 L 84.835938 85.585938 L 84.835938 66.175781 L 87.941406 66.175781 L 87.941406 83.195312 L 94.066406 83.195312 Z M 82.421875 86.054688 L 78.855469 84.292969 C 79.171875 84.035156 79.472656 83.753906 79.746094 83.425781 C 81.261719 81.644531 82.019531 79.011719 82.019531 75.519531 C 82.019531 69.101562 79.5 65.886719 74.457031 65.886719 C 71.984375 65.886719 70.054688 66.703125 68.675781 68.332031 C 67.160156 70.117188 66.40625 72.742188 66.40625 76.210938 C 66.40625 79.625 67.074219 82.125 68.417969 83.714844 C 69.644531 85.152344 71.496094 85.871094 73.96875 85.871094 C 74.890625 85.871094 75.738281 85.761719 76.507812 85.53125 L 81.15625 88.238281 Z M 70.863281 81.703125 C 70.078125 80.4375 69.683594 78.40625 69.683594 75.609375 C 69.683594 70.722656 71.167969 68.273438 74.140625 68.273438 C 75.695312 68.273438 76.832031 68.859375 77.5625 70.027344 C 78.347656 71.292969 78.742188 73.304688 78.742188 76.066406 C 78.742188 80.992188 77.253906 83.457031 74.285156 83.457031 C 72.730469 83.457031 71.589844 82.875 70.863281 81.703125 M 65.050781 80.207031 C 65.050781 81.851562 64.449219 83.203125 63.242188 84.261719 C 62.035156 85.3125 60.414062 85.84375 58.382812 85.84375 C 56.484375 85.84375 54.644531 85.234375 52.863281 84.027344 L 53.699219 82.363281 C 55.230469 83.128906 56.617188 83.511719 57.867188 83.511719 C 59.035156 83.511719 59.949219 83.253906 60.613281 82.738281 C 61.273438 82.222656 61.667969 81.5 61.667969 80.582031 C 61.667969 79.429688 60.863281 78.445312 59.390625 77.617188 C 58.027344 76.871094 55.308594 75.308594 55.308594 75.308594 C 53.832031 74.234375 53.09375 73.082031 53.09375 71.179688 C 53.09375 69.605469 53.644531 68.335938 54.746094 67.371094 C 55.851562 66.402344 57.273438 65.917969 59.019531 65.917969 C 60.820312 65.917969 62.457031 66.402344 63.933594 67.355469 L 63.183594 69.023438 C 61.921875 68.488281 60.675781 68.21875 59.449219 68.21875 C 58.453125 68.21875 57.6875 68.457031 57.152344 68.9375 C 56.613281 69.417969 56.28125 70.027344 56.28125 70.78125 C 56.28125 71.925781 57.101562 72.925781 58.617188 73.765625 C 59.996094 74.515625 62.785156 76.105469 62.785156 76.105469 C 64.296875 77.175781 65.050781 78.320312 65.050781 80.207031 "/>
<path style=" stroke:none;fill-rule:nonzero;fill:rgb(36.470588%,52.941176%,63.137255%);fill-opacity:1;" d="M 97.964844 59.675781 C 96.085938 59.628906 94.632812 59.816406 93.414062 60.332031 C 93.0625 60.472656 92.5 60.472656 92.453125 60.917969 C 92.640625 61.105469 92.664062 61.410156 92.828125 61.671875 C 93.109375 62.140625 93.601562 62.769531 94.046875 63.097656 C 94.539062 63.476562 95.035156 63.847656 95.550781 64.175781 C 96.460938 64.742188 97.496094 65.070312 98.386719 65.632812 C 98.902344 65.960938 99.417969 66.382812 99.9375 66.734375 C 100.191406 66.921875 100.355469 67.226562 100.6875 67.34375 L 100.6875 67.273438 C 100.519531 67.0625 100.472656 66.757812 100.308594 66.523438 L 99.605469 65.84375 C 98.925781 64.929688 98.078125 64.128906 97.167969 63.476562 C 96.417969 62.957031 94.773438 62.253906 94.46875 61.390625 L 94.421875 61.34375 C 94.9375 61.292969 95.550781 61.105469 96.039062 60.960938 C 96.839844 60.753906 97.566406 60.800781 98.386719 60.589844 C 98.761719 60.496094 99.136719 60.378906 99.511719 60.261719 L 99.511719 60.050781 C 99.089844 59.628906 98.785156 59.066406 98.339844 58.667969 C 97.144531 57.636719 95.828125 56.625 94.46875 55.78125 C 93.742188 55.3125 92.804688 55.007812 92.03125 54.609375 C 91.75 54.46875 91.28125 54.398438 91.117188 54.164062 C 90.695312 53.648438 90.457031 52.96875 90.152344 52.359375 C 89.476562 51.070312 88.816406 49.640625 88.230469 48.277344 C 87.808594 47.363281 87.550781 46.449219 87.035156 45.605469 C 84.617188 41.617188 81.992188 39.203125 77.960938 36.832031 C 77.09375 36.339844 76.0625 36.128906 74.957031 35.871094 L 73.199219 35.777344 C 72.824219 35.613281 72.449219 35.167969 72.121094 34.957031 C 70.78125 34.113281 67.335938 32.285156 66.351562 34.699219 C 65.71875 36.222656 67.289062 37.722656 67.828125 38.5 C 68.226562 39.035156 68.746094 39.648438 69.023438 40.257812 C 69.1875 40.65625 69.234375 41.078125 69.398438 41.5 C 69.777344 42.53125 70.125 43.679688 70.621094 44.644531 C 70.878906 45.132812 71.15625 45.652344 71.488281 46.09375 C 71.675781 46.355469 72.003906 46.46875 72.074219 46.894531 C 71.746094 47.359375 71.722656 48.066406 71.535156 48.652344 C 70.691406 51.300781 71.019531 54.585938 72.214844 56.53125 C 72.589844 57.117188 73.484375 58.410156 74.675781 57.914062 C 75.734375 57.492188 75.5 56.15625 75.804688 54.984375 C 75.871094 54.699219 75.828125 54.515625 75.96875 54.328125 L 75.96875 54.375 C 76.292969 55.03125 76.625 55.664062 76.929688 56.320312 C 77.65625 57.46875 78.921875 58.664062 79.976562 59.460938 C 80.539062 59.886719 80.984375 60.609375 81.6875 60.871094 L 81.6875 60.800781 L 81.640625 60.800781 C 81.5 60.589844 81.292969 60.496094 81.105469 60.332031 C 80.679688 59.910156 80.210938 59.394531 79.882812 58.925781 C 78.902344 57.613281 78.03125 56.15625 77.257812 54.65625 C 76.882812 53.929688 76.554688 53.132812 76.25 52.40625 C 76.109375 52.125 76.109375 51.699219 75.875 51.558594 C 75.519531 52.074219 75.007812 52.523438 74.75 53.152344 C 74.304688 54.164062 74.257812 55.40625 74.089844 56.699219 L 74 56.742188 C 73.25 56.554688 72.992188 55.78125 72.707031 55.125 C 72.003906 53.460938 71.886719 50.785156 72.496094 48.863281 C 72.660156 48.371094 73.367188 46.824219 73.085938 46.355469 C 72.941406 45.90625 72.472656 45.652344 72.214844 45.296875 C 71.914062 44.851562 71.582031 44.289062 71.371094 43.796875 C 70.808594 42.484375 70.527344 41.03125 69.917969 39.71875 C 69.636719 39.105469 69.144531 38.472656 68.746094 37.910156 C 68.300781 37.277344 67.808594 36.832031 67.457031 36.082031 C 67.339844 35.824219 67.175781 35.402344 67.363281 35.121094 C 67.40625 34.933594 67.503906 34.863281 67.691406 34.816406 C 67.996094 34.558594 68.863281 34.886719 69.167969 35.027344 C 70.035156 35.378906 70.761719 35.707031 71.488281 36.199219 C 71.816406 36.433594 72.167969 36.878906 72.589844 36.996094 L 73.085938 36.996094 C 73.832031 37.160156 74.675781 37.042969 75.382812 37.253906 C 76.625 37.652344 77.75 38.238281 78.761719 38.871094 C 81.832031 40.820312 84.363281 43.585938 86.074219 46.894531 C 86.355469 47.433594 86.476562 47.925781 86.730469 48.488281 C 87.226562 49.636719 87.835938 50.808594 88.328125 51.9375 C 88.820312 53.039062 89.289062 54.164062 89.992188 55.078125 C 90.34375 55.570312 91.753906 55.828125 92.386719 56.085938 C 92.851562 56.296875 93.582031 56.484375 94.003906 56.742188 C 94.800781 57.234375 95.597656 57.796875 96.347656 58.339844 C 96.71875 58.621094 97.894531 59.207031 97.964844 59.675781 M 74.042969 39.296875 C 73.71875 39.292969 73.394531 39.332031 73.082031 39.414062 L 73.082031 39.460938 L 73.125 39.460938 C 73.316406 39.835938 73.644531 40.09375 73.878906 40.421875 C 74.066406 40.796875 74.230469 41.171875 74.414062 41.546875 L 74.460938 41.5 C 74.792969 41.265625 74.957031 40.890625 74.957031 40.328125 C 74.8125 40.160156 74.792969 40 74.671875 39.835938 C 74.535156 39.601562 74.230469 39.484375 74.042969 39.296875 "/>
<path style=" stroke:none;fill-rule:nonzero;fill:rgb(97.254902%,59.607843%,11.372549%);fill-opacity:1;" d="M 100.195312 85.582031 L 100.683594 85.582031 L 100.683594 83.207031 L 99.953125 83.207031 L 99.359375 84.828125 L 98.714844 83.207031 L 98.011719 83.207031 L 98.011719 85.582031 L 98.46875 85.582031 L 98.46875 83.773438 L 98.496094 83.773438 L 99.171875 85.582031 L 99.523438 85.582031 L 100.195312 83.773438 Z M 96.28125 85.582031 L 96.796875 85.582031 L 96.796875 83.609375 L 97.46875 83.609375 L 97.46875 83.203125 L 95.582031 83.203125 L 95.582031 83.609375 L 96.28125 83.609375 Z M 96.28125 85.582031 "/>
</g>
</svg>
