<?xml version="1.0" encoding="UTF-8"?>
<svg xmlns="http://www.w3.org/2000/svg" xmlns:xlink="http://www.w3.org/1999/xlink" width="80px" height="71px" viewBox="0 0 81 71" version="1.1">
<g id="surface1">
<path style=" stroke:none;fill-rule:nonzero;fill:rgb(38.039216%,85.490196%,98.431373%);fill-opacity:1;" d="M 47.554688 35.5 C 47.554688 39.429688 44.398438 42.613281 40.5 42.613281 C 36.601562 42.613281 33.445312 39.429688 33.445312 35.5 C 33.445312 31.570312 36.601562 28.386719 40.5 28.386719 C 44.398438 28.386719 47.554688 31.570312 47.554688 35.5 Z M 47.554688 35.5 "/>
<path style="fill:none;stroke-width:1;stroke-linecap:butt;stroke-linejoin:miter;stroke:rgb(38.039216%,85.490196%,98.431373%);stroke-opacity:1;stroke-miterlimit:4;" d="M 11.000453 0 C 11.000453 -2.319254 6.075046 -4.200553 0 -4.200553 C -6.075046 -4.200553 -11.000453 -2.319254 -11.000453 0 C -11.000453 2.319254 -6.075046 4.200553 0 4.200553 C 6.075046 4.200553 11.000453 2.319254 11.000453 0 Z M 11.000453 0 " transform="matrix(3.441975,0,0,3.469596,40.5,35.5)"/>
<path style="fill:none;stroke-width:1;stroke-linecap:butt;stroke-linejoin:miter;stroke:rgb(38.039216%,85.490196%,98.431373%);stroke-opacity:1;stroke-miterlimit:4;" d="M 10.999441 0.0000711501 C 10.999549 -2.31937 6.075546 -4.200371 0.000250153 -4.19986 C -6.075046 -4.199349 -11.000308 -2.320075 -10.999441 -0.0000711501 C -10.999549 2.31937 -6.075546 4.200371 -0.000250153 4.19986 C 6.075046 4.199349 11.000308 2.320075 10.999441 0.0000711501 Z M 10.999441 0.0000711501 " transform="matrix(1.720987,3.004758,-2.980838,1.734798,40.5,35.5)"/>
<path style="fill:none;stroke-width:1;stroke-linecap:butt;stroke-linejoin:miter;stroke:rgb(38.039216%,85.490196%,98.431373%);stroke-opacity:1;stroke-miterlimit:4;" d="M 10.999441 -0.0000711501 C 11.000308 -2.320075 6.075046 -4.199349 -0.000250153 -4.19986 C -6.075546 -4.200371 -10.999549 -2.31937 -10.999441 0.0000711501 C -11.000308 2.320075 -6.075046 4.199349 0.000250153 4.19986 C 6.075546 4.200371 10.999549 2.31937 10.999441 -0.0000711501 Z M 10.999441 -0.0000711501 " transform="matrix(-1.720987,3.004758,-2.980838,-1.734798,40.5,35.5)"/>
</g>
</svg>
